<svg xmlns="http://www.w3.org/2000/svg" viewBox="0 0 16 16">
  <circle cx="8" cy="8" r="7" fill="#FFF3E0" stroke="#D32F2F" stroke-width="1"></circle>
  <path fill="#2E7D32" d="M8 3 5 7h2v2h2V7h2L8 3z"></path>
  <rect x="7.2" y="9" width="1.6" height="2" fill="#6D4C41"></rect>
  <path fill="#FF5722" d="M10.5 5.5c.8.7 1.2 1.5 1.2 2.4 0 1.2-.8 2.1-1.9 2.4.3-.4.4-.8.4-1.3 0-.8-.4-1.5-1.1-2 .3-.6.7-1.1 1.4-1.5z"></path>
  <path fill="#FFC107" d="M10.2 6.8c.4.4.6.8.6 1.3 0 .7-.4 1.2-1 1.4.1-.2.2-.4.2-.7 0-.4-.2-.8-.6-1.1.2-.3.4-.6.8-.9z"></path>
</svg>